# xmcd
#
# Track frame offsets: 
#        150
#        14921
#        32845
#        49010
#        68349
#        88025
#        105617
#        123327
#        141382
#        156536
#        173187
#        195241
#
# Disc length: 2843 seconds
#
# Revision: 0
# Processed by: cddbd v1.5.2PL0 Copyright (c) Steve Scherf et al.
# Submitted via: ExactAudioCopyFreeDBPlugin 1.0
#
DISCID=a30b190c
DTITLE=Terakaft - The Tapsit Years
DYEAR=2014
DGENRE=Blues
TTITLE0=Talikoba
TTITLE1=Rastaman Aridal
TTITLE2=Intidgagen
TTITLE3=Amidinine Wa Dagh Nohar Timtar (live)
TTITLE4=Aratan N Azawad
TTITLE5=Amazzagh
TTITLE6=Arghane Manine (live)
TTITLE7=Haran Bardan
TTITLE8=Tahra A Issasnanane
TTITLE9=Alghalem
TTITLE10=Ter Simawan
TTITLE11=Soubhanallah
EXTD=
EXTT0=
EXTT1=
EXTT2=
EXTT3=
EXTT4=
EXTT5=
EXTT6=
EXTT7=
EXTT8=
EXTT9=
EXTT10=
EXTT11=
PLAYORDER=
